<svg width="37" height="36" viewBox="0 0 37 36" fill="none" xmlns="http://www.w3.org/2000/svg">
<path d="M29.1667 4.5H8.16675C6.97327 4.5 5.82868 4.97411 4.98477 5.81802C4.14085 6.66193 3.66675 7.80653 3.66675 9V21C3.66675 22.1935 4.14085 23.3381 4.98477 24.182C5.82868 25.0259 6.97327 25.5 8.16675 25.5H17.1667V28.5H11.1667C10.7689 28.5 10.3874 28.658 10.1061 28.9393C9.82478 29.2206 9.66675 29.6022 9.66675 30C9.66675 30.3978 9.82478 30.7794 10.1061 31.0607C10.3874 31.342 10.7689 31.5 11.1667 31.5H26.1667C26.5646 31.5 26.9461 31.342 27.2274 31.0607C27.5087 30.7794 27.6667 30.3978 27.6667 30C27.6667 29.6022 27.5087 29.2206 27.2274 28.9393C26.9461 28.658 26.5646 28.5 26.1667 28.5H20.1667V25.5H29.1667C30.3602 25.5 31.5048 25.0259 32.3487 24.182C33.1926 23.3381 33.6667 22.1935 33.6667 21V9C33.6667 7.80653 33.1926 6.66193 32.3487 5.81802C31.5048 4.97411 30.3602 4.5 29.1667 4.5ZM30.6667 21C30.6667 21.3978 30.5087 21.7794 30.2274 22.0607C29.9461 22.342 29.5646 22.5 29.1667 22.5H8.16675C7.76892 22.5 7.38739 22.342 7.10609 22.0607C6.82478 21.7794 6.66675 21.3978 6.66675 21V9C6.66675 8.60218 6.82478 8.22064 7.10609 7.93934C7.38739 7.65804 7.76892 7.5 8.16675 7.5H29.1667C29.5646 7.5 29.9461 7.65804 30.2274 7.93934C30.5087 8.22064 30.6667 8.60218 30.6667 9V21Z" fill="#A27EFC"/>
<path d="M13.6643 11L9.66675 14.8157L13.9243 18.8803" stroke="#A27EFC" stroke-width="2" stroke-linecap="round" stroke-linejoin="round"/>
<path d="M23.6692 11L27.6667 14.8157L23.4092 18.8803" stroke="#A27EFC" stroke-width="2" stroke-linecap="round" stroke-linejoin="round"/>
<path d="M20.0655 11L17.4788 19" stroke="#A27EFC" stroke-width="2" stroke-linecap="round" stroke-linejoin="round"/>
</svg>
