<svg width="37" height="36" viewBox="0 0 37 36" fill="none" xmlns="http://www.w3.org/2000/svg">
<path d="M28.8333 12H27.3333V7.5C27.3333 6.30653 26.8591 5.16193 26.0152 4.31802C25.1713 3.47411 24.0267 3 22.8333 3H7.83325C6.63978 3 5.49519 3.47411 4.65127 4.31802C3.80736 5.16193 3.33325 6.30653 3.33325 7.5V25.5C3.33473 25.7961 3.42383 26.0852 3.58933 26.3308C3.75483 26.5764 3.98932 26.7675 4.26325 26.88C4.44127 26.964 4.63649 27.0051 4.83325 27C5.03066 27.0011 5.22636 26.9633 5.40911 26.8887C5.59187 26.814 5.75809 26.704 5.89825 26.565L10.1133 22.335H12.3333V24.495C12.3333 25.6885 12.8074 26.8331 13.6513 27.677C14.4952 28.5209 15.6398 28.995 16.8333 28.995H27.2133L30.7683 32.565C30.9084 32.704 31.0746 32.814 31.2574 32.8887C31.4401 32.9633 31.6358 33.0011 31.8333 33C32.03 33.0051 32.2252 32.964 32.4033 32.88C32.6772 32.7675 32.9117 32.5764 33.0772 32.3308C33.2427 32.0852 33.3318 31.7961 33.3333 31.5V16.5C33.3333 15.3065 32.8591 14.1619 32.0152 13.318C31.1713 12.4741 30.0267 12 28.8333 12ZM12.3333 16.5V19.335H9.49825C9.30084 19.3339 9.10515 19.3717 8.92239 19.4463C8.73964 19.521 8.57341 19.631 8.43325 19.77L6.33325 21.885V7.5C6.33325 7.10217 6.49129 6.72064 6.77259 6.43934C7.0539 6.15804 7.43543 6 7.83325 6H22.8333C23.2311 6 23.6126 6.15804 23.8939 6.43934C24.1752 6.72064 24.3333 7.10217 24.3333 7.5V12H16.8333C15.6398 12 14.4952 12.4741 13.6513 13.318C12.8074 14.1619 12.3333 15.3065 12.3333 16.5ZM30.3333 27.885L28.8333 26.385C28.6943 26.2433 28.5287 26.1305 28.3459 26.0533C28.163 25.976 27.9667 25.9358 27.7683 25.935H16.8333C16.4354 25.935 16.0539 25.777 15.7726 25.4957C15.4913 25.2144 15.3333 24.8328 15.3333 24.435V16.5C15.3333 16.1022 15.4913 15.7206 15.7726 15.4393C16.0539 15.158 16.4354 15 16.8333 15H28.8333C29.2311 15 29.6126 15.158 29.8939 15.4393C30.1752 15.7206 30.3333 16.1022 30.3333 16.5V27.885Z" fill="#A27EFC"/>
</svg>
