<svg width="30" height="32" viewBox="0 0 30 32" fill="none" xmlns="http://www.w3.org/2000/svg">
<g clip-path="url(#clip0_65_459)">
<path d="M8.61808 31.7056C6.69771 31.7056 4.77733 31.6868 2.8601 31.715C2.18749 31.7245 1.63118 31.0487 1.88891 30.3541C2.26607 29.3326 2.62437 28.3017 2.9921 27.2771C3.36612 26.2368 3.74014 25.1964 4.11101 24.1561C4.17702 23.9707 4.23359 23.7821 4.30902 23.5998C4.47246 23.2069 4.20216 22.8172 3.74957 22.8235C3.2624 22.8298 2.77524 22.8235 2.28493 22.8235C1.84805 22.8235 1.41431 22.8203 0.977436 22.8235C0.345691 22.8298 -0.194906 22.2169 0.0628208 21.4908C0.707137 19.6647 1.37345 17.8481 2.03034 16.0251C2.75952 14.0042 3.4887 11.9801 4.21788 9.95915C4.32474 9.66056 4.53846 9.5097 4.85591 9.5097C6.07539 9.5097 7.29488 9.5097 8.51437 9.5097C9.02668 9.5097 9.29697 9.88371 9.12097 10.3709C8.76266 11.3829 8.39179 12.3918 8.0272 13.4039C7.61861 14.5322 7.21002 15.6574 6.80143 16.7858C6.72285 16.9995 6.64742 17.2163 6.56884 17.4301C6.43684 17.7884 6.61599 18.109 6.99001 18.1781C7.07172 18.1938 7.15344 18.197 7.2383 18.197C8.12149 18.197 9.00467 18.219 9.88472 18.1907C10.485 18.1718 11.0916 18.7564 10.8276 19.5233C10.5196 20.4222 10.1927 21.3148 9.87214 22.2074C9.46041 23.3546 9.04868 24.505 8.6338 25.6522C8.56465 25.847 8.49236 26.0419 8.42636 26.2399C8.2975 26.6391 8.5458 26.9848 8.96382 26.9848C10.7553 26.9848 12.5437 27.0162 14.3352 26.9722C15.8313 26.9345 17.2676 26.5762 18.638 25.957C19.6469 25.5013 20.5709 24.9073 21.407 24.1812C22.4127 23.3043 23.2394 22.2766 23.89 21.1105C24.55 19.9225 24.9837 18.6558 25.1817 17.3138C25.2949 16.5375 25.3074 15.7548 25.2383 14.9722C25.1472 13.8848 24.8894 12.8444 24.4683 11.8418C24.0502 10.8423 23.4782 9.94029 22.771 9.11682C21.9287 8.1362 20.9387 7.33159 19.8229 6.67785C18.4588 5.87952 16.9973 5.34835 15.4353 5.1252C14.8727 5.04348 14.3006 4.99948 13.7318 4.99634C10.7899 4.98377 7.84805 4.99005 4.90619 4.99005C4.45674 4.99005 4.0953 4.8329 3.891 4.40545C3.77471 4.16344 3.75585 3.91514 3.847 3.6637C4.17387 2.75537 4.50075 1.84705 4.8339 0.941859C4.99734 0.511267 5.33364 0.284971 5.79252 0.284971C8.62437 0.284971 11.4594 0.275542 14.2912 0.291257C15.3253 0.297543 16.3436 0.467265 17.3525 0.696705C18.8266 1.03615 20.2315 1.56417 21.5704 2.27135C22.6988 2.86852 23.7485 3.57884 24.7134 4.41488C25.7946 5.3515 26.7407 6.40441 27.5327 7.59875C28.7616 9.45626 29.5254 11.4898 29.8428 13.693C29.9622 14.5196 30.022 15.3557 30 16.1917C29.9497 18.2095 29.5505 20.1551 28.7428 22.0126C28.1927 23.2792 27.4856 24.4453 26.6244 25.5202C25.6846 26.6925 24.594 27.7108 23.3714 28.5846C22.0104 29.5558 20.5332 30.3038 18.9523 30.8413C17.7202 31.2593 16.4567 31.539 15.1555 31.6427C14.7532 31.6742 14.3478 31.6993 13.9455 31.7025C12.1697 31.7087 10.397 31.7025 8.62123 31.7025L8.61808 31.7056Z" fill="#A27EFC"/>
</g>
<defs>
<clipPath id="clip0_65_459">
<rect width="30" height="31.4301" fill="white" transform="translate(0 0.284973)"/>
</clipPath>
</defs>
</svg>
