<svg width="30" height="36" viewBox="0 0 30 36" fill="none" xmlns="http://www.w3.org/2000/svg">
<g clip-path="url(#clip0_65_424)">
<path d="M29.5438 22.773C29.5688 24.2471 29.3314 25.9501 28.6569 27.5804C27.747 29.779 26.0731 31.3009 24.1493 32.5522C18.0844 36.4976 11.6864 37.0493 5.02607 34.2344C3.39586 33.5453 1.91347 32.5647 0.547673 31.4258C-0.176866 30.822 -0.185194 30.3682 0.531017 29.781C3.61655 27.2514 7.13515 25.7732 11.1097 25.3568C13.0939 25.1486 15.0551 25.3734 17.0247 25.5067C18.7423 25.6233 20.4267 25.44 21.9736 24.6093C23.9827 23.5308 24.9217 21.7091 25.3964 19.5813C25.8503 17.5492 25.8066 15.4839 25.8316 13.4206C25.8378 12.8501 25.8586 12.2734 25.9419 11.7113C25.9773 11.4719 26.1918 11.2595 26.325 11.0346C26.5561 11.1887 26.9059 11.2907 26.9975 11.5031C27.5076 12.694 28.0198 13.8932 28.407 15.1258C29.1919 17.6242 29.55 20.1976 29.5438 22.7709V22.773Z" fill="#A27EFC"/>
<path d="M18.6401 16.2459C18.6734 19.3169 16.2062 21.8236 13.1311 21.8444C10.0477 21.8673 7.52843 19.4106 7.49928 16.3563C7.47013 13.2582 9.94564 10.7223 13.0208 10.6994C16.123 10.6765 18.6068 13.1271 18.6401 16.2459Z" fill="#A27EFC"/>
<path d="M22.19 0C22.4752 0.328957 22.7313 0.530912 22.8625 0.793245C23.4788 2.03412 24.2075 3.1938 25.3297 4.03077C26.0063 4.5367 26.7787 4.90729 27.4804 5.38199C27.7115 5.53814 27.9842 5.81921 28.0009 6.05656C28.0134 6.25852 27.724 6.57498 27.4929 6.68116C25.3505 7.66387 23.8056 9.21913 22.8167 11.3574C22.7126 11.5822 22.4003 11.8425 22.1796 11.8466C21.9651 11.8508 21.6424 11.5926 21.5404 11.3719C20.5473 9.21497 18.9879 7.65138 16.8247 6.66451C16.6102 6.56665 16.3874 6.24186 16.3791 6.01284C16.3708 5.81505 16.6123 5.50691 16.8205 5.41114C18.9941 4.40969 20.5702 2.8357 21.5571 0.655833C21.657 0.437222 21.9068 0.287317 22.1921 0L22.19 0Z" fill="#A27EFC"/>
</g>
<defs>
<clipPath id="clip0_65_424">
<rect width="29.5458" height="36" fill="white"/>
</clipPath>
</defs>
</svg>
