<svg width="34" height="27" viewBox="0 0 34 27" fill="none" xmlns="http://www.w3.org/2000/svg">
<g clip-path="url(#clip0_90_18)">
<path d="M33.1872 9.86531L31.5935 8.98875L17.2497 1.02H17.0744C16.9767 0.97869 16.8753 0.946674 16.7716 0.924377H16.4688H16.1819C16.073 0.946689 15.9663 0.978691 15.8631 1.02H15.6878L1.34408 8.98875C1.09881 9.12776 0.894794 9.32933 0.752855 9.57292C0.610917 9.81651 0.536133 10.0934 0.536133 10.3753C0.536133 10.6572 0.610917 10.9341 0.752855 11.1777C0.894794 11.4213 1.09881 11.6229 1.34408 11.7619L5.31252 13.9613V21.5156C5.31252 22.7837 5.81626 23.9998 6.71291 24.8965C7.60957 25.7931 8.8257 26.2969 10.0938 26.2969H22.8438C24.1118 26.2969 25.328 25.7931 26.2246 24.8965C27.1213 23.9998 27.625 22.7837 27.625 21.5156V13.9613L30.8125 12.1763V16.7344C30.8125 17.1571 30.9804 17.5624 31.2793 17.8613C31.5782 18.1602 31.9836 18.3281 32.4063 18.3281C32.829 18.3281 33.2343 18.1602 33.5332 17.8613C33.8321 17.5624 34 17.1571 34 16.7344V11.2519C33.9995 10.9695 33.924 10.6923 33.7812 10.4486C33.6384 10.205 33.4334 10.0037 33.1872 9.86531V9.86531ZM24.4375 21.5156C24.4375 21.9383 24.2696 22.3437 23.9707 22.6426C23.6718 22.9415 23.2665 23.1094 22.8438 23.1094H10.0938C9.67108 23.1094 9.2657 22.9415 8.96682 22.6426C8.66793 22.3437 8.50002 21.9383 8.50002 21.5156V15.7303L15.6878 19.7147L15.9269 19.8103H16.0703C16.2026 19.827 16.3365 19.827 16.4688 19.8103C16.6011 19.827 16.7349 19.827 16.8672 19.8103H17.0106C17.0953 19.7925 17.1761 19.7601 17.2497 19.7147L24.4375 15.7303V21.5156ZM16.4688 16.5112L5.40814 10.3594L16.4688 4.2075L27.5294 10.3594L16.4688 16.5112Z" fill="#A27EFC"/>
</g>
<defs>
<clipPath id="clip0_90_18">
<rect width="34" height="26.5625" fill="white"/>
</clipPath>
</defs>
</svg>
