<svg width="36" height="36" viewBox="0 0 36 36" fill="none" xmlns="http://www.w3.org/2000/svg">
<path d="M31.755 3.09C30.6798 2.9048 29.591 2.80947 28.5 2.805C24.7775 2.80195 21.1327 3.86936 18 5.88C14.8592 3.89576 11.215 2.85455 7.5 2.88C6.40897 2.88447 5.32021 2.9798 4.245 3.165C3.89281 3.22572 3.57388 3.41019 3.34562 3.68519C3.11737 3.96019 2.99481 4.30765 3 4.665V22.665C2.99679 22.8854 3.04219 23.1038 3.13298 23.3047C3.22377 23.5055 3.3577 23.6839 3.52526 23.8271C3.69283 23.9703 3.88989 24.0749 4.10244 24.1333C4.31499 24.1917 4.53779 24.2025 4.755 24.165C6.90453 23.7928 9.10681 23.8546 11.2321 24.3466C13.3574 24.8387 15.3627 25.751 17.13 27.03L17.31 27.135H17.475C17.6414 27.2043 17.8198 27.24 18 27.24C18.1802 27.24 18.3587 27.2043 18.525 27.135H18.69L18.87 27.03C20.6249 25.7224 22.6245 24.7805 24.7502 24.26C26.8759 23.7396 29.0845 23.6511 31.245 24C31.4622 24.0375 31.685 24.0267 31.8976 23.9683C32.1101 23.9099 32.3072 23.8053 32.4747 23.6621C32.6423 23.5189 32.7762 23.3405 32.867 23.1397C32.9578 22.9388 33.0032 22.7204 33 22.5V4.5C32.9844 4.15823 32.8524 3.83207 32.626 3.57561C32.3995 3.31915 32.0922 3.1478 31.755 3.09ZM16.5 23.025C13.7248 21.565 10.6358 20.8031 7.5 20.805C7.005 20.805 6.51 20.805 6 20.805V5.805C6.49959 5.77621 7.00042 5.77621 7.5 5.805C10.7001 5.80146 13.8303 6.74054 16.5 8.505V23.025ZM30 20.865C29.49 20.865 28.995 20.865 28.5 20.865C25.3642 20.8631 22.2752 21.625 19.5 23.085V8.505C22.1697 6.74054 25.2999 5.80146 28.5 5.805C28.9996 5.77621 29.5004 5.77621 30 5.805V20.865ZM31.755 27.09C30.6798 26.9048 29.591 26.8095 28.5 26.805C24.7775 26.8019 21.1327 27.8694 18 29.88C14.8673 27.8694 11.2225 26.8019 7.5 26.805C6.40897 26.8095 5.32021 26.9048 4.245 27.09C4.04975 27.121 3.86254 27.1903 3.69415 27.2939C3.52576 27.3974 3.37951 27.5333 3.2638 27.6936C3.1481 27.8539 3.06523 28.0355 3.01996 28.228C2.97469 28.4204 2.96791 28.6199 3 28.815C3.07623 29.2045 3.30374 29.548 3.63269 29.7701C3.96164 29.9922 4.36521 30.0749 4.755 30C6.90453 29.6278 9.10681 29.6896 11.2321 30.1816C13.3574 30.6737 15.3627 31.586 17.13 32.865C17.384 33.0459 17.6881 33.1431 18 33.1431C18.3119 33.1431 18.616 33.0459 18.87 32.865C20.6373 31.586 22.6426 30.6737 24.7679 30.1816C26.8932 29.6896 29.0955 29.6278 31.245 30C31.6348 30.0749 32.0384 29.9922 32.3673 29.7701C32.6963 29.548 32.9238 29.2045 33 28.815C33.0321 28.6199 33.0253 28.4204 32.98 28.228C32.9348 28.0355 32.8519 27.8539 32.7362 27.6936C32.6205 27.5333 32.4742 27.3974 32.3059 27.2939C32.1375 27.1903 31.9503 27.121 31.755 27.09V27.09Z" fill="#A27EFC"/>
</svg>
