<svg width="37" height="26" viewBox="0 0 37 26" fill="none" xmlns="http://www.w3.org/2000/svg">
<path d="M0.503651 8.34815L0.503649 8.34815C0.409393 8.07338 0.424826 7.77294 0.547102 7.50936C0.669327 7.24588 0.88878 7.03976 1.15946 6.93442L0.503651 8.34815ZM0.503651 8.34815C0.597949 8.62301 0.79486 8.85054 1.05299 8.98349L1.05475 8.98437M0.503651 8.34815L1.05475 8.98437M32.3545 21.0126C32.6581 21.1475 33.0047 21.1475 33.3082 21.0126C33.6119 20.878 33.844 20.6209 33.9479 20.3056L33.9566 20.2789V20.2509V10.0963L36.1806 8.98443L36.3978 8.87585L36.3775 8.85558C36.5396 8.72379 36.663 8.54844 36.7318 8.34791C36.8261 8.07303 36.8103 7.7726 36.6881 7.50912C36.5658 7.2456 36.3463 7.03944 36.0756 6.93412L36.0448 6.92214L36.0117 6.92222L35.9458 6.92238L18.9751 0.304211C18.9745 0.30397 18.9739 0.30373 18.9734 0.303491C18.7137 0.196529 18.4224 0.196529 18.1628 0.303492L1.1596 6.93437L32.4255 20.8527M32.3545 21.0126L32.4255 20.8527M32.3545 21.0126C32.3545 21.0127 32.3546 21.0127 32.3546 21.0127L32.4255 20.8527M32.3545 21.0126C32.0507 20.878 31.8185 20.6209 31.7147 20.3056L31.8802 20.2511H31.8809H31.881C31.9695 20.5195 32.1671 20.7382 32.4255 20.8527M31.8809 20.2228V20.2509V20.2228ZM31.8809 20.2228L31.7059 20.2509L31.8809 20.2228ZM28.0903 22.8223V22.9969H28.0901L28.0519 22.8476C28.0647 22.8391 28.0774 22.8306 28.0901 22.8221C28.0901 22.822 28.0901 22.822 28.0901 22.822L28.0903 22.8223ZM28.0903 22.8223L28.1741 22.9754C28.177 22.9738 28.1798 22.9723 28.1826 22.9707C28.1845 22.9695 28.1863 22.9682 28.1882 22.967L28.6628 22.6469H28.3775C28.285 22.7092 28.1892 22.7676 28.0903 22.8218C28.0903 22.8218 28.0903 22.8218 28.0903 22.8218L28.0903 22.8219V22.8223ZM1.05475 8.98437L7.06966 11.9969L1.05475 8.98437ZM35.9373 8.91039L36.1013 8.8284L36.1022 8.82795L36.1022 8.82798L35.9786 8.95164L35.9783 8.95139L35.9373 8.91039ZM36.1023 8.8279L36.1022 8.8276L36.1023 8.8279ZM31.7059 10.9812L31.8809 10.8886V11.0866L31.7059 11.1792V10.9812ZM30.1656 11.9942V11.8888H29.9906L30.0724 12.0435L30.1656 11.9942ZM9.05421 22.9715C9.05657 22.9728 9.05895 22.9741 9.06132 22.9754L9.14539 22.8219L9.04755 22.967C9.04977 22.9685 9.05198 22.97 9.05421 22.9715ZM27.816 16.8585V16.8603V19.8611C27.816 20.1339 27.636 20.4712 27.2212 20.835C26.8113 21.1944 26.1968 21.557 25.3913 21.8806C23.7817 22.5271 21.4365 23.0071 18.5185 23.0071C15.6009 23.0071 13.2559 22.5173 11.6465 21.861C10.8411 21.5325 10.2265 21.165 9.81643 20.8019C9.40133 20.4342 9.22101 20.0943 9.22101 19.8212V13.103L13.5284 15.266L13.5287 15.2662L16.4394 16.7364L16.4396 16.7365L17.9579 17.5006L17.965 17.5044C18.284 17.6776 18.6687 17.6784 18.9882 17.5066L20.5947 16.7381L20.5947 16.7382L20.5968 16.7371L23.5477 15.2767L23.5486 15.2763L27.8535 13.1145L27.816 16.8585ZM4.22412 8.11796L18.5185 2.54396L32.8129 8.10819L20.0027 14.5618L18.5187 15.2562L17.0348 14.5618L4.22412 8.11796Z" fill="#A27EFC" stroke="#A27EFC" stroke-width="0.35"/>
</svg>
